<?xml version="1.0" encoding="utf-8"?>
<!-- Generator: Adobe Illustrator 26.3.1, SVG Export Plug-In . SVG Version: 6.00 Build 0)  -->
<svg version="1.1" id="Layer_1" xmlns="http://www.w3.org/2000/svg" xmlns:xlink="http://www.w3.org/1999/xlink" x="0px" y="0px"
	 viewBox="0 0 50 50" style="enable-background:new 0 0 50 50;" xml:space="preserve">
<style type="text/css">
	.st0{fill:#6D427A;}
	.st1{fill:#FDDB79;}
</style>
<path class="st0" d="M40.14,14.8H9.86c-1.38,0-2.49-1.12-2.49-2.49v0c0-1.38,1.12-2.49,2.49-2.49h30.28c1.38,0,2.49,1.12,2.49,2.49
	v0C42.63,13.68,41.52,14.8,40.14,14.8z"/>
<path class="st1" d="M40.07,26.98H9.8c-1.38,0-2.49-1.12-2.49-2.49v0c0-1.38,1.12-2.49,2.49-2.49h30.28c1.38,0,2.49,1.12,2.49,2.49
	v0C42.57,25.86,41.45,26.98,40.07,26.98z"/>
<path class="st1" d="M40.2,39.68H9.93c-1.38,0-2.49-1.12-2.49-2.49v0c0-1.38,1.12-2.49,2.49-2.49H40.2c1.38,0,2.49,1.12,2.49,2.49v0
	C42.7,38.57,41.58,39.68,40.2,39.68z"/>
</svg>
